<svg xmlns="http://www.w3.org/2000/svg" version="1.1" xmlns:xlink="http://www.w3.org/1999/xlink" xmlns:svgjs="http://svgjs.dev/svgjs" width="2000" height="1500" viewBox="0 0 2000 1500"><rect width="2000" height="1500" fill="#f9f9f9"></rect><g transform="matrix(0.75,0,0,0.75,249.5276139213379,233.29372469635632)"><svg viewBox="0 0 358 247" data-background-color="#f9f9f9" preserveAspectRatio="xMidYMid meet" height="1379" width="2000" xmlns="http://www.w3.org/2000/svg" xmlns:xlink="http://www.w3.org/1999/xlink"><g id="tight-bounds" transform="matrix(1,0,0,1,0.11278069541748437,-0.09999999999999432)"><svg viewBox="0 0 357.77447965211275 247.2" height="247.2" width="357.77447965211275"><g><svg viewBox="0 0 357.77447965211275 247.2" height="247.2" width="357.77447965211275"><g><svg viewBox="0 0 395.52 273.27981608713554" height="247.2" width="357.77447965211275"><g transform="matrix(1,0,0,1,0,166.2346108805069)"><svg viewBox="0 0 395.52 107.04520520662865" height="107.04520520662865" width="395.52"><g id="textblocktransform"><svg viewBox="0 0 395.52 107.04520520662865" height="107.04520520662865" width="395.52" id="textblock"><g><svg viewBox="0 0 395.52 77.50951932829288" height="77.50951932829288" width="395.52"><g transform="matrix(1,0,0,1,0,0)"><svg width="395.52" viewBox="1.8661110888939998 -39.65 209.76840496873797 41.1" height="77.50951932829288" data-palette-color="#030303"><path d="M3.55-4.85L3.55-4.85Q3.55-5.9 3.65-7 3.75-8.1 3.85-9.2L3.85-9.2Q3.85-9.55 3.73-9.8 3.6-10.05 3.15-10.15L3.15-10.15Q2.55-10.3 2.18-10.93 1.8-11.55 1.88-12.3 1.95-13.05 2.55-13.6L2.55-13.6Q3.1-14.15 3.75-14.35L3.75-14.35Q4.2-14.45 4.38-14.75 4.55-15.05 4.6-15.4L4.6-15.4Q4.7-16.5 4.83-17.6 4.95-18.7 5.1-19.75L5.1-19.75Q5.5-22.45 6-25.15 6.5-27.85 7-30.55L7-30.55Q7.35-32 7.63-33.48 7.9-34.95 8.4-36.4L8.4-36.4Q8.6-36.85 8.78-37.3 8.95-37.75 9.25-38.15L9.25-38.15Q10.15-39.65 11.68-39.65 13.2-39.65 14.1-38.15L14.1-38.15Q14.65-37.4 14.9-36.58 15.15-35.75 15.3-34.9L15.3-34.9Q15.75-32.75 16.07-30.58 16.4-28.4 16.75-26.2L16.75-26.2Q17-23.9 17.23-21.58 17.45-19.25 17.65-16.9L17.65-16.9Q17.7-16.65 17.82-16.38 17.95-16.1 18.25-15.95L18.25-15.95Q19.55-14.8 18.45-13.7L18.45-13.7Q17.95-13.1 18.1-12.4L18.1-12.4Q18.2-11.05 18.32-9.7 18.45-8.35 18.55-7L18.55-7Q18.65-5.75 18.8-4.45 18.95-3.15 19.2-1.85L19.2-1.85Q19.45-0.7 18.4-0.25L18.4-0.25Q17.55 0.25 16.65-0.65L16.65-0.65Q16.3-1 16.05-1.48 15.8-1.95 15.6-2.45L15.6-2.45Q15.15-3.75 14.9-5.08 14.65-6.4 14.4-7.75L14.4-7.75Q14.25-8.75 14.08-9.78 13.9-10.8 13.75-11.8L13.75-11.8Q13.7-12.1 13.6-12.25 13.5-12.4 13.15-12.35L13.15-12.35Q12.2-12.15 11.2-11.93 10.2-11.7 9.25-11.45L9.25-11.45Q8.7-11.3 8.7-10.75L8.7-10.75Q8.55-8.9 8.35-7.1 8.15-5.3 7.95-3.4L7.95-3.4Q7.9-2.95 7.9-2.5 7.9-2.05 7.9-1.6L7.9-1.6Q7.65-0.05 6.4 0.35L6.4 0.35Q5.75 0.55 5.18 0.33 4.6 0.1 4.15-0.35L4.15-0.35Q3.8-0.7 3.7-1.07 3.6-1.45 3.6-1.9L3.6-1.9Q3.55-2.6 3.55-3.33 3.55-4.05 3.55-4.85ZM11.4-29.95L11.4-29.95Q11.1-29.5 11.1-29.3L11.1-29.3Q10.2-25.9 9.75-22.45L9.75-22.45Q9.6-20.95 9.43-19.43 9.25-17.9 9.1-16.4L9.1-16.4Q9.05-15.95 9.13-15.85 9.2-15.75 9.7-15.8L9.7-15.8Q10.4-15.85 11.1-15.95 11.8-16.05 12.45-16.1L12.45-16.1Q13.2-16.1 13.05-16.75L13.05-16.75Q12.9-17.75 12.8-18.73 12.7-19.7 12.55-20.65L12.55-20.65Q12.45-21.75 12.3-22.8 12.15-23.85 12.1-24.95L12.1-24.95Q12-26.2 11.83-27.45 11.65-28.7 11.4-29.95ZM27.5-16.3L27.5-16.3Q27.85-16.55 27.95-16.82 28.05-17.1 28.15-17.3L28.15-17.3Q28.6-18.15 29.2-18.93 29.8-19.7 30.65-20.2L30.65-20.2Q31.8-20.9 32.92-21.03 34.05-21.15 35.2-20.45L35.2-20.45Q36.05-20 36.47-19.1 36.9-18.2 36.7-17.3L36.7-17.3Q36.55-16.35 35.9-16.05 35.25-15.75 34.4-16.25L34.4-16.25Q33.95-16.5 33.65-16.5 33.35-16.5 32.95-16.1L32.95-16.1Q32.75-15.9 32.57-15.6 32.4-15.3 32.2-15.05L32.2-15.05Q31.85-14.25 31.6-13.48 31.35-12.7 31.1-11.9L31.1-11.9Q30.65-10.35 30.27-8.78 29.9-7.2 29.65-5.6L29.65-5.6Q29.55-4.6 29.45-3.6 29.35-2.6 29.35-1.6L29.35-1.6Q29.35-1.25 29.32-0.85 29.3-0.45 29.15-0.05L29.15-0.05Q28.65 1.45 27.1 1.45L27.1 1.45Q25.55 1.6 24.85 0.2L24.85 0.2Q24.65-0.2 24.57-0.65 24.5-1.1 24.4-1.45L24.4-1.45Q24.05-3.55 23.8-5.63 23.55-7.7 23.3-9.8L23.3-9.8Q23.1-11.85 23.05-13.98 23-16.1 23.05-18.25L23.05-18.25Q23.05-19.65 24.1-20.3L24.1-20.3Q25-20.85 25.95-20.48 26.9-20.1 27.2-19.1L27.2-19.1Q27.5-18.3 27.5-17.5L27.5-17.5Q27.45-17.25 27.47-16.95 27.5-16.65 27.5-16.3ZM46.55-7L46.55-7Q46.8-7.65 46.95-8.18 47.1-8.7 47.2-9.2L47.2-9.2Q47.75-11.05 48.2-12.95 48.65-14.85 49.15-16.75L49.15-16.75Q49.35-17.7 49.85-18.7L49.85-18.7Q50.2-19.6 50.87-20.25 51.55-20.9 52.4-21.35L52.4-21.35Q53.45-21.85 54.2-21.1L54.2-21.1Q54.9-20.4 54.25-19.55L54.25-19.55Q54.05-19.15 54-18.73 53.95-18.3 53.9-17.9L53.9-17.9Q53.55-16.15 53.07-14.45 52.6-12.75 52.25-11L52.25-11Q51.9-9.3 51.55-7.65 51.2-6 50.65-4.3L50.65-4.3Q50.45-3.5 50.2-2.78 49.95-2.05 49.6-1.25L49.6-1.25Q49.45-0.9 49.25-0.58 49.05-0.25 48.8 0.05L48.8 0.05Q47.85 1.15 46.55 1.15 45.25 1.15 44.3 0.05L44.3 0.05Q43.8-0.5 43.5-1.18 43.2-1.85 42.95-2.6L42.95-2.6Q42.1-4.95 41.65-7.43 41.2-9.9 40.9-12.35L40.9-12.35Q40.75-13.4 40.67-14.48 40.6-15.55 40.55-16.6L40.55-16.6Q40.55-17.3 40.62-17.98 40.7-18.65 40.9-19.3L40.9-19.3Q41.05-19.8 41.35-20.3L41.35-20.3Q42.05-21.15 42.92-21.1 43.8-21.05 44.3-20.05L44.3-20.05Q44.55-19.5 44.7-18.9 44.85-18.3 44.9-17.65L44.9-17.65Q45.15-15.3 45.47-12.93 45.8-10.55 46.25-8.2L46.25-8.2Q46.3-7.95 46.37-7.68 46.45-7.4 46.55-7ZM60.19-24.7L60.19-24.7Q58.74-24.05 57.69-25.1L57.69-25.1Q57.34-25.5 57.24-26.15 57.14-26.8 57.39-27.4L57.39-27.4Q57.69-28.05 58.39-28.48 59.09-28.9 59.79-28.9L59.79-28.9Q61.24-28.9 61.74-27.55L61.74-27.55Q61.99-26.95 61.82-26.33 61.64-25.7 61.09-25.25L61.09-25.25Q60.89-25.05 60.67-24.93 60.44-24.8 60.19-24.7ZM62.19-3.95L62.19-3.95Q62.39-2.9 61.54-2.45L61.54-2.45Q60.64-2 59.74-2.65L59.74-2.65Q59.34-3 59.14-3.45 58.94-3.9 58.74-4.4L58.74-4.4Q58.59-5.1 58.47-5.85 58.34-6.6 58.24-7.3L58.24-7.3Q57.94-9.8 57.77-12.33 57.59-14.85 57.79-17.35L57.79-17.35Q57.84-17.9 57.94-18.48 58.04-19.05 58.39-19.55L58.39-19.55Q58.64-20.05 59.07-20.35 59.49-20.65 60.09-20.65L60.09-20.65Q61.24-20.6 61.74-19.45L61.74-19.45Q62.19-18.55 62.19-17.5L62.19-17.5 62.19-10.6Q62.14-10 62.09-9.15 62.04-8.3 62.04-7.3L62.04-7.3Q62.04-6.5 62.07-5.65 62.09-4.8 62.19-3.95ZM78.79-6.7L78.79-6.7Q78.34-5.9 78.02-5.28 77.69-4.65 77.29-4L77.29-4Q76.64-3.05 75.94-2.27 75.24-1.5 74.29-0.85L74.29-0.85Q72.49 0.35 70.54 0.05L70.54 0.05Q68.34-0.4 67.14-2.45L67.14-2.45Q66.54-3.5 66.29-4.63 66.04-5.75 66.04-7L66.04-7Q66.09-10.25 67.34-12.9 68.59-15.55 70.84-17.75L70.84-17.75Q71.54-18.35 72.29-18.9 73.04-19.45 73.99-19.6L73.99-19.6Q74.84-19.8 75.62-19.75 76.39-19.7 77.19-19.45L77.19-19.45Q77.29-19.4 77.49-19.38 77.69-19.35 77.89-19.45L77.89-19.45Q77.89-20.25 77.92-21.13 77.94-22 77.89-22.85L77.89-22.85Q77.89-24.8 78.04-26.65L78.04-26.65Q78.09-27.8 78.06-28.9 78.04-30 78.04-31.1L78.04-31.1Q78.09-32.05 78.12-33.05 78.14-34.05 78.24-35L78.24-35Q78.34-35.7 78.52-36.35 78.69-37 79.09-37.55L79.09-37.55Q79.44-38.35 80.29-38.35L80.29-38.35Q81.29-38.5 81.79-37.55L81.79-37.55Q82.14-37 82.31-36.38 82.49-35.75 82.54-35.05L82.54-35.05Q82.69-33.8 82.72-32.5 82.74-31.2 82.69-29.9L82.69-29.9Q82.69-26.9 82.64-23.88 82.59-20.85 82.54-17.8L82.54-17.8Q82.54-16.1 82.56-14.43 82.59-12.75 82.54-11.05L82.54-11.05Q82.49-9.35 82.49-7.63 82.49-5.9 82.69-4.15L82.69-4.15Q82.69-3.4 82.89-2.65L82.89-2.65Q83.39-1.35 82.14-0.7L82.14-0.7Q81.09-0.2 80.19-1.3L80.19-1.3Q79.99-1.65 79.84-2.05 79.69-2.45 79.59-2.8L79.59-2.8Q79.39-3.7 79.22-4.67 79.04-5.65 78.79-6.7ZM76.29-15.25L76.29-15.25Q75.74-15.35 75.34-15.18 74.94-15 74.59-14.75L74.59-14.75Q74.14-14.45 73.79-14.08 73.44-13.7 73.09-13.25L73.09-13.25Q71.89-11.7 71.27-10 70.64-8.3 70.84-6.35L70.84-6.35Q70.84-5.9 70.92-5.38 70.99-4.85 71.44-4.75L71.44-4.75Q71.84-4.65 72.17-5.03 72.49-5.4 72.69-5.75L72.69-5.75Q73.69-7.1 74.31-8.5 74.94-9.9 75.39-11.45L75.39-11.45Q75.69-12.4 75.89-13.33 76.09-14.25 76.29-15.25ZM98.23-7.9L98.23-12.05Q98.19-14.2 98.14-16.6 98.09-19 98.09-21.4L98.09-21.4Q98.09-23.85 98.06-26.23 98.03-28.6 98.09-31L98.09-31Q98.09-32.25 98.11-33.45 98.14-34.65 98.23-35.9L98.23-35.9Q98.34-36.75 98.53-37.4L98.53-37.4Q98.64-37.75 98.78-38.02 98.94-38.3 99.19-38.6L99.19-38.6Q99.89-39.3 100.78-39.15 101.69-39 102.19-38.15L102.19-38.15Q102.48-37.75 102.59-37.27 102.69-36.8 102.73-36.25L102.73-36.25Q102.84-33.45 102.78-30.68 102.73-27.9 102.59-25.1L102.59-25.1Q102.59-24.8 102.53-24.53 102.48-24.25 102.48-23.95L102.48-23.95Q102.39-18.95 102.19-14L102.19-14Q102.14-10.3 102.19-6.5L102.19-6.5Q102.19-5.55 102.39-5.4 102.59-5.25 103.48-5.45L103.48-5.45Q104.98-5.8 106.46-6.15 107.94-6.5 109.48-6.7L109.48-6.7Q110.98-6.95 112.51-7.1 114.03-7.25 115.48-7.15L115.48-7.15 118.84-7.15Q119.28-7.15 119.71-7.1 120.14-7.05 120.48-6.8L120.48-6.8Q121.03-6.6 121.23-6.1 121.44-5.6 121.34-5.15L121.34-5.15Q121.28-4.75 120.96-4.48 120.64-4.2 120.34-4.4L120.34-4.4Q119.53-4.8 118.84-4.6 118.14-4.4 117.44-4.3L117.44-4.3Q116.69-4.2 115.96-3.95 115.23-3.7 114.48-3.4L114.48-3.4Q112.23-2.6 109.89-2.08 107.53-1.55 105.19-1L105.19-1Q104.28-0.85 103.44-0.65 102.59-0.45 101.69-0.2L101.69-0.2Q100.98-0.05 100.48-0.1L100.48-0.1Q99.28-0.2 98.66-0.95 98.03-1.7 98.09-2.8L98.09-2.8Q98.14-4.1 98.21-5.38 98.28-6.65 98.23-7.9L98.23-7.9ZM123.68-8.95L123.68-8.95Q123.68-11.3 124.36-13.48 125.03-15.65 126.13-17.75L126.13-17.75Q126.68-18.75 127.43-19.65 128.18-20.55 129.13-21.2L129.13-21.2Q130.43-22.1 131.83-22.25L131.83-22.25Q133.33-22.35 134.53-21.6 135.73-20.85 136.38-19.58 137.03-18.3 136.78-16.7L136.78-16.7Q136.73-16.25 136.58-15.75 136.43-15.25 136.18-14.8L136.18-14.8Q135.53-13.55 134.66-12.43 133.78-11.3 132.53-10.45L132.53-10.45Q131.73-9.9 130.86-9.53 129.98-9.15 128.98-9.2L128.98-9.2Q128.63-9.2 128.56-9.1 128.48-9 128.48-8.65L128.48-8.65Q128.43-7.85 128.58-7.05 128.73-6.25 128.98-5.45L128.98-5.45Q129.28-4.8 129.53-4.7 129.78-4.6 130.43-5L130.43-5Q131.38-5.5 132.13-6.35L132.13-6.35Q132.58-6.75 133.03-7.08 133.48-7.4 133.93-7.75L133.93-7.75Q134.13-7.95 134.53-8.15L134.53-8.15Q135.28-8.4 135.81-8.03 136.33-7.65 136.33-6.85L136.33-6.85Q136.33-6.5 136.28-6.15 136.23-5.8 136.13-5.45L136.13-5.45Q135.48-3.55 134.28-2.15 133.08-0.75 131.03-0.1L131.03-0.1Q128.18 0.65 126.08-1.45L126.08-1.45Q124.98-2.55 124.53-3.9 124.08-5.25 123.83-6.7L123.83-6.7Q123.78-7.25 123.76-7.83 123.73-8.4 123.68-8.95ZM133.03-17.2L133.03-17.2Q133.03-17.55 132.98-17.82 132.93-18.1 132.68-18.2L132.68-18.2Q132.33-18.4 131.78-17.95L131.78-17.95Q131.58-17.85 131.43-17.7 131.28-17.55 131.08-17.35L131.08-17.35Q130.43-16.55 130.01-15.6 129.58-14.65 129.23-13.7L129.23-13.7Q128.98-13.35 129.28-13.15L129.28-13.15Q129.38-13.05 129.56-13.08 129.73-13.1 129.83-13.15L129.83-13.15Q132.08-14.4 132.98-16.85L132.98-16.85Q133.03-16.95 133.03-17.07 133.03-17.2 133.03-17.2ZM143.63-24.7L143.63-24.7Q142.18-24.05 141.13-25.1L141.13-25.1Q140.78-25.5 140.68-26.15 140.58-26.8 140.83-27.4L140.83-27.4Q141.13-28.05 141.83-28.48 142.53-28.9 143.23-28.9L143.23-28.9Q144.68-28.9 145.18-27.55L145.18-27.55Q145.43-26.95 145.25-26.33 145.08-25.7 144.53-25.25L144.53-25.25Q144.33-25.05 144.1-24.93 143.88-24.8 143.63-24.7ZM145.63-3.95L145.63-3.95Q145.83-2.9 144.98-2.45L144.98-2.45Q144.08-2 143.18-2.65L143.18-2.65Q142.78-3 142.58-3.45 142.38-3.9 142.18-4.4L142.18-4.4Q142.03-5.1 141.91-5.85 141.78-6.6 141.68-7.3L141.68-7.3Q141.38-9.8 141.2-12.33 141.03-14.85 141.23-17.35L141.23-17.35Q141.28-17.9 141.38-18.48 141.48-19.05 141.83-19.55L141.83-19.55Q142.08-20.05 142.5-20.35 142.93-20.65 143.53-20.65L143.53-20.65Q144.68-20.6 145.18-19.45L145.18-19.45Q145.63-18.55 145.63-17.5L145.63-17.5 145.63-10.6Q145.58-10 145.53-9.15 145.48-8.3 145.48-7.3L145.48-7.3Q145.48-6.5 145.5-5.65 145.53-4.8 145.63-3.95ZM154.73-13.15L154.73-13.15Q154.88-13.6 155.03-14.05 155.18-14.5 155.38-14.9L155.38-14.9Q156.33-17.25 158.08-18.95L158.08-18.95Q158.63-19.4 159.15-19.7 159.68-20 160.33-20L160.33-20Q161.43-20 162.08-19.45 162.73-18.9 163.18-18.05L163.18-18.05Q163.43-17.6 163.53-17.1 163.63-16.6 163.78-16.1L163.78-16.1Q164.08-16.25 164.18-16.48 164.28-16.7 164.33-16.9L164.33-16.9Q164.83-17.9 165.4-18.8 165.98-19.7 166.78-20.45L166.78-20.45Q168.23-21.7 169.98-21.75 171.73-21.8 173.03-19.9L173.03-19.9Q173.73-18.95 174.03-17.9 174.33-16.85 174.53-15.8L174.53-15.8Q174.88-13.65 174.98-11.55 175.08-9.45 174.83-7.3L174.83-7.3Q174.63-6.3 174.58-5.33 174.53-4.35 174.43-3.35L174.43-3.35Q174.38-2.85 174.53-2.2L174.53-2.2Q174.63-1.65 174.35-1.15 174.08-0.65 173.53-0.5L173.53-0.5Q173.03-0.3 172.55-0.48 172.08-0.65 171.73-1.15L171.73-1.15Q171.43-1.85 171.28-2.5L171.28-2.5Q171.08-4.05 170.83-5.6 170.58-7.15 170.33-8.65L170.33-8.65Q170.23-9.65 170.2-10.65 170.18-11.65 170.18-12.65L170.18-12.65Q170.13-13.5 169.98-14.3 169.83-15.1 169.73-15.95L169.73-15.95Q169.68-16.2 169.6-16.45 169.53-16.7 169.28-16.9L169.28-16.9Q168.73-16.65 168.33-16.23 167.93-15.8 167.53-15.25L167.53-15.25Q166.88-14.25 166.3-13.13 165.73-12 165.28-10.85L165.28-10.85Q164.93-9.75 164.6-8.63 164.28-7.5 164.08-6.35L164.08-6.35Q164.03-5.95 164.03-5.58 164.03-5.2 163.93-4.85L163.93-4.85Q163.83-3.1 162.28-2.95L162.28-2.95Q160.83-2.7 160.33-4.4L160.33-4.4Q160.08-5.25 160-6.1 159.93-6.95 159.73-7.75L159.73-7.75Q159.58-9.2 159.5-10.6 159.43-12 159.38-13.4L159.38-13.4Q159.38-13.7 159.23-13.75L159.23-13.75Q158.93-13.6 158.83-13.33 158.73-13.05 158.63-12.8L158.63-12.8Q156.58-7.65 156.43-2.2L156.43-2.2Q156.43-1.85 156.38-1.4 156.33-0.95 156.08-0.55L156.08-0.55Q155.43 0.4 154.38 0.48 153.33 0.55 152.53-0.35L152.53-0.35Q152.03-1 151.78-2.05L151.78-2.05Q151.33-3.75 150.98-5.5 150.63-7.25 150.38-8.95L150.38-8.95Q150.03-11.05 149.78-13.13 149.53-15.2 149.53-17.3L149.53-17.3Q149.48-18 149.53-18.75 149.58-19.5 149.83-20.2L149.83-20.2Q150.13-20.75 150.68-21.15 151.23-21.55 151.78-21.5L151.78-21.5Q152.43-21.5 152.9-21.1 153.38-20.7 153.58-20.05L153.58-20.05Q153.83-19.45 153.85-18.82 153.88-18.2 153.98-17.5L153.98-17.5Q154.23-15.65 154.43-13.6L154.43-13.6Q154.43-13.35 154.73-13.15ZM189.22-3.85L189.22-3.85Q188.87-3.6 188.7-3.23 188.52-2.85 188.27-2.6L188.27-2.6Q187.77-1.85 187.17-1.23 186.57-0.6 185.72-0.25L185.72-0.25Q184.32 0.4 182.9-0.18 181.47-0.75 180.92-2.2L180.92-2.2Q179.82-5 180.3-7.55 180.77-10.1 182.57-12.4L182.57-12.4Q183.57-13.65 184.95-14.18 186.32-14.7 187.97-14.35L187.97-14.35Q188.07-14.35 188.15-14.33 188.22-14.3 188.32-14.3L188.32-14.3Q188.52-14.7 188.42-15.03 188.32-15.35 188.27-15.7L188.27-15.7Q188.07-16.8 187.8-17.8 187.52-18.8 187.12-19.75L187.12-19.75Q186.52-21.05 186.05-21.15 185.57-21.25 184.52-20.35L184.52-20.35Q182.87-18.95 181.67-17L181.67-17Q181.27-16.5 181.27-16L181.27-16Q181.27-14.9 180.22-14.6L180.22-14.6Q179.87-14.5 179.37-14.7 178.87-14.9 178.57-15.25L178.57-15.25Q177.92-16.25 178.12-17.45L178.12-17.45Q178.32-18.6 178.77-19.63 179.22-20.65 179.87-21.55L179.87-21.55Q180.57-22.55 181.37-23.38 182.17-24.2 183.17-24.85L183.17-24.85Q184.77-25.85 186.65-25.73 188.52-25.6 189.97-23.95L189.97-23.95Q190.62-23.3 191-22.53 191.37-21.75 191.72-20.9L191.72-20.9Q192.27-19.35 192.65-17.75 193.02-16.15 193.22-14.5L193.22-14.5Q193.47-12.25 193.67-10.05 193.87-7.85 194.02-5.6L194.02-5.6Q194.17-4.3 194.02-2.95L194.02-2.95Q193.92-1.45 192.77-0.83 191.62-0.2 190.37-1L190.37-1Q189.87-1.35 189.67-1.85 189.47-2.35 189.37-2.9L189.37-2.9Q189.32-3.15 189.32-3.38 189.32-3.6 189.22-3.85ZM184.97-5L184.97-5Q185.77-5.85 186.52-6.68 187.27-7.5 187.82-8.5L187.82-8.5Q187.97-8.8 187.8-9.22 187.62-9.65 187.27-9.85L187.27-9.85Q186.92-10.1 186.75-9.93 186.57-9.75 186.32-9.65L186.32-9.65Q186.27-9.55 186.17-9.45 186.07-9.35 186.02-9.25L186.02-9.25Q185.37-8.3 185.07-7.28 184.77-6.25 184.97-5ZM202.37-16.3L202.37-16.3Q202.72-16.55 202.82-16.82 202.92-17.1 203.02-17.3L203.02-17.3Q203.47-18.15 204.07-18.93 204.67-19.7 205.52-20.2L205.52-20.2Q206.67-20.9 207.8-21.03 208.92-21.15 210.07-20.45L210.07-20.45Q210.92-20 211.35-19.1 211.77-18.2 211.57-17.3L211.57-17.3Q211.42-16.35 210.77-16.05 210.12-15.75 209.27-16.25L209.27-16.25Q208.82-16.5 208.52-16.5 208.22-16.5 207.82-16.1L207.82-16.1Q207.62-15.9 207.45-15.6 207.27-15.3 207.07-15.05L207.07-15.05Q206.72-14.25 206.47-13.48 206.22-12.7 205.97-11.9L205.97-11.9Q205.52-10.35 205.15-8.78 204.77-7.2 204.52-5.6L204.52-5.6Q204.42-4.6 204.32-3.6 204.22-2.6 204.22-1.6L204.22-1.6Q204.22-1.25 204.2-0.85 204.17-0.45 204.02-0.05L204.02-0.05Q203.52 1.45 201.97 1.45L201.97 1.45Q200.42 1.6 199.72 0.2L199.72 0.2Q199.52-0.2 199.45-0.65 199.37-1.1 199.27-1.45L199.27-1.45Q198.92-3.55 198.67-5.63 198.42-7.7 198.17-9.8L198.17-9.8Q197.97-11.85 197.92-13.98 197.87-16.1 197.92-18.25L197.92-18.25Q197.92-19.65 198.97-20.3L198.97-20.3Q199.87-20.85 200.82-20.48 201.77-20.1 202.07-19.1L202.07-19.1Q202.37-18.3 202.37-17.5L202.37-17.5Q202.32-17.25 202.35-16.95 202.37-16.65 202.37-16.3Z" opacity="1" transform="matrix(1,0,0,1,0,0)" fill="#030303" class="wordmark-text-0" data-fill-palette-color="primary" id="text-0"></path></svg></g></svg></g><g transform="matrix(1,0,0,1,75.54432,95.80765661323895)"><svg viewBox="0 0 244.43135999999998 11.2375485933897" height="11.2375485933897" width="244.43135999999998"><g transform="matrix(1,0,0,1,0,0)"><svg width="244.43135999999998" viewBox="4.6 -38.85 1040.71 47.85" height="11.2375485933897" data-palette-color="#030303"><path d="M14.05 0L4.6 0 4.6-36.5 14.05-36.5Q17.6-36.5 20.18-35.15 22.75-33.8 24.18-31.35 25.6-28.9 25.6-25.55L25.6-25.55 25.6-11Q25.6-7.65 24.18-5.18 22.75-2.7 20.18-1.35 17.6 0 14.05 0L14.05 0ZM9.1-32.5L9.1-4 14.05-4Q17.35-4 19.23-5.85 21.1-7.7 21.1-11L21.1-11 21.1-25.55Q21.1-28.8 19.23-30.65 17.35-32.5 14.05-32.5L14.05-32.5 9.1-32.5ZM45 0.5L45 0.5Q41.75 0.5 39.32-0.8 36.9-2.1 35.57-4.48 34.25-6.85 34.25-10L34.25-10 34.25-17.5Q34.25-20.7 35.57-23.05 36.9-25.4 39.32-26.7 41.75-28 45-28L45-28Q48.25-28 50.67-26.7 53.1-25.4 54.42-23.05 55.75-20.7 55.75-17.5L55.75-17.5 55.75-12.65 38.65-12.65 38.65-10Q38.65-6.75 40.3-5.03 41.95-3.3 45-3.3L45-3.3Q47.6-3.3 49.2-4.23 50.8-5.15 51.15-7L51.15-7 55.65-7Q55.2-3.55 52.27-1.53 49.35 0.5 45 0.5ZM51.7-16.05L51.35-15.65 51.35-17.5Q51.35-20.75 49.72-22.5 48.1-24.25 45-24.25L45-24.25Q41.95-24.25 40.3-22.5 38.65-20.75 38.65-17.5L38.65-17.5 38.65-16.05 51.7-16.05ZM78.05 0L71.95 0 62.75-27.5 67.34-27.5 73.45-9Q74-7.35 74.45-5.83 74.9-4.3 75.09-3.45L75.09-3.45Q75.34-4.3 75.8-5.83 76.25-7.35 76.75-9L76.75-9 82.7-27.5 87.25-27.5 78.05 0ZM104.99 0.5L104.99 0.5Q101.74 0.5 99.32-0.8 96.89-2.1 95.57-4.48 94.24-6.85 94.24-10L94.24-10 94.24-17.5Q94.24-20.7 95.57-23.05 96.89-25.4 99.32-26.7 101.74-28 104.99-28L104.99-28Q108.24-28 110.67-26.7 113.09-25.4 114.42-23.05 115.74-20.7 115.74-17.5L115.74-17.5 115.74-12.65 98.64-12.65 98.64-10Q98.64-6.75 100.29-5.03 101.94-3.3 104.99-3.3L104.99-3.3Q107.59-3.3 109.19-4.23 110.79-5.15 111.14-7L111.14-7 115.64-7Q115.19-3.55 112.27-1.53 109.34 0.5 104.99 0.5ZM111.69-16.05L111.34-15.65 111.34-17.5Q111.34-20.75 109.72-22.5 108.09-24.25 104.99-24.25L104.99-24.25Q101.94-24.25 100.29-22.5 98.64-20.75 98.64-17.5L98.64-17.5 98.64-16.05 111.69-16.05ZM147.49 0L138.74 0Q136.34 0 134.54-0.95 132.74-1.9 131.74-3.65 130.74-5.4 130.74-7.75L130.74-7.75 130.74-32.4 121.49-32.4 121.49-36.5 135.24-36.5 135.24-7.75Q135.24-6.05 136.19-5.08 137.14-4.1 138.74-4.1L138.74-4.1 147.49-4.1 147.49 0ZM164.99 0.4L164.99 0.4Q161.69 0.4 159.29-0.85 156.89-2.1 155.56-4.48 154.24-6.85 154.24-10.1L154.24-10.1 154.24-17.4Q154.24-20.7 155.56-23.05 156.89-25.4 159.29-26.65 161.69-27.9 164.99-27.9L164.99-27.9Q168.29-27.9 170.69-26.65 173.09-25.4 174.41-23.05 175.74-20.7 175.74-17.45L175.74-17.45 175.74-10.1Q175.74-6.85 174.41-4.48 173.09-2.1 170.69-0.85 168.29 0.4 164.99 0.4ZM164.99-3.6L164.99-3.6Q167.94-3.6 169.59-5.25 171.24-6.9 171.24-10.1L171.24-10.1 171.24-17.4Q171.24-20.6 169.59-22.25 167.94-23.9 164.99-23.9L164.99-23.9Q162.09-23.9 160.41-22.25 158.74-20.6 158.74-17.4L158.74-17.4 158.74-10.1Q158.74-6.9 160.41-5.25 162.09-3.6 164.99-3.6ZM189.09 9L184.59 9 184.59-27.5 189.09-27.5 189.09-22.25 189.99-22.25 189.09-21.2Q189.09-24.35 191.16-26.18 193.24-28 196.64-28L196.64-28Q200.79-28 203.26-25.28 205.74-22.55 205.74-17.8L205.74-17.8 205.74-9.75Q205.74-6.6 204.61-4.3 203.49-2 201.46-0.75 199.44 0.5 196.64 0.5L196.64 0.5Q193.29 0.5 191.19-1.35 189.09-3.2 189.09-6.3L189.09-6.3 189.99-5.25 188.99-5.25 189.09 1 189.09 9ZM195.14-3.4L195.14-3.4Q197.99-3.4 199.61-5.1 201.24-6.8 201.24-10L201.24-10 201.24-17.5Q201.24-20.7 199.61-22.4 197.99-24.1 195.14-24.1L195.14-24.1Q192.39-24.1 190.74-22.35 189.09-20.6 189.09-17.5L189.09-17.5 189.09-10Q189.09-6.9 190.74-5.15 192.39-3.4 195.14-3.4ZM217.43 0L213.28 0 213.28-27.5 217.23-27.5 217.23-24.2 218.13-24.2 217.43-23Q217.43-25.3 218.66-26.65 219.88-28 221.98-28L221.98-28Q224.28-28 225.53-26.3 226.78-24.6 226.78-21.5L226.78-21.5 225.43-24.2 227.53-24.2 226.58-23Q226.58-25.3 227.86-26.65 229.13-28 231.23-28L231.23-28Q233.83-28 235.26-26.05 236.68-24.1 236.68-20.9L236.68-20.9 236.68 0 232.53 0 232.53-20.95Q232.53-22.65 231.81-23.6 231.08-24.55 229.68-24.55L229.68-24.55Q228.33-24.55 227.56-23.63 226.78-22.7 226.78-21L226.78-21 226.78 0 223.18 0 223.18-20.95Q223.18-22.7 222.41-23.63 221.63-24.55 220.23-24.55L220.23-24.55Q218.83-24.55 218.13-23.63 217.43-22.7 217.43-21L217.43-21 217.43 0ZM254.98 0.5L254.98 0.5Q251.73 0.5 249.31-0.8 246.88-2.1 245.56-4.48 244.23-6.85 244.23-10L244.23-10 244.23-17.5Q244.23-20.7 245.56-23.05 246.88-25.4 249.31-26.7 251.73-28 254.98-28L254.98-28Q258.23-28 260.66-26.7 263.08-25.4 264.41-23.05 265.73-20.7 265.73-17.5L265.73-17.5 265.73-12.65 248.63-12.65 248.63-10Q248.63-6.75 250.28-5.03 251.93-3.3 254.98-3.3L254.98-3.3Q257.58-3.3 259.18-4.23 260.78-5.15 261.13-7L261.13-7 265.63-7Q265.18-3.55 262.25-1.53 259.33 0.5 254.98 0.5ZM261.68-16.05L261.33-15.65 261.33-17.5Q261.33-20.75 259.71-22.5 258.08-24.25 254.98-24.25L254.98-24.25Q251.93-24.25 250.28-22.5 248.63-20.75 248.63-17.5L248.63-17.5 248.63-16.05 261.68-16.05ZM279.08 0L274.58 0 274.58-27.5 279.08-27.5 279.08-22.25 280.03-22.25 279.08-21.2Q279.08-24.45 281.03-26.23 282.98-28 286.43-28L286.43-28Q290.58-28 293.03-25.45 295.48-22.9 295.48-18.5L295.48-18.5 295.48 0 290.98 0 290.98-18Q290.98-20.95 289.4-22.53 287.83-24.1 285.13-24.1L285.13-24.1Q282.33-24.1 280.7-22.4 279.08-20.7 279.08-17.5L279.08-17.5 279.08 0ZM325.48 0L317.98 0Q314.43 0 312.45-1.9 310.48-3.8 310.48-7.25L310.48-7.25 310.48-23.4 302.73-23.4 302.73-27.5 310.48-27.5 310.48-35.25 314.98-35.25 314.98-27.5 325.98-27.5 325.98-23.4 314.98-23.4 314.98-7.25Q314.98-4.1 317.98-4.1L317.98-4.1 325.48-4.1 325.48 0ZM372.57 0.5L372.57 0.5Q368.22 0.5 365.72-1.73 363.22-3.95 363.22-7.75L363.22-7.75Q363.22-11.6 365.72-13.8 368.22-16 372.47-16L372.47-16 380.97-16 380.97-18.75Q380.97-21.3 379.45-22.68 377.92-24.05 375.12-24.05L375.12-24.05Q372.67-24.05 371.02-23.03 369.37-22 369.12-20.25L369.12-20.25 364.62-20.25Q365.07-23.8 367.97-25.9 370.87-28 375.22-28L375.22-28Q379.97-28 382.72-25.55 385.47-23.1 385.47-18.9L385.47-18.9 385.47 0 381.07 0 381.07-5.25 380.32-5.25 381.07-6Q381.07-3 378.75-1.25 376.42 0.5 372.57 0.5ZM373.67-3.05L373.67-3.05Q376.87-3.05 378.92-4.65 380.97-6.25 380.97-8.75L380.97-8.75 380.97-12.65 372.57-12.65Q370.32-12.65 369.02-11.4 367.72-10.15 367.72-8L367.72-8Q367.72-5.7 369.3-4.38 370.87-3.05 373.67-3.05ZM399.07 0L394.57 0 394.57-27.5 399.07-27.5 399.07-22.25 400.02-22.25 399.07-21.2Q399.07-24.45 401.02-26.23 402.97-28 406.42-28L406.42-28Q410.57-28 413.02-25.45 415.47-22.9 415.47-18.5L415.47-18.5 415.47 0 410.97 0 410.97-18Q410.97-20.95 409.39-22.53 407.82-24.1 405.12-24.1L405.12-24.1Q402.32-24.1 400.69-22.4 399.07-20.7 399.07-17.5L399.07-17.5 399.07 0ZM433.37 0.5L433.37 0.5Q429.27 0.5 426.74-2.25 424.22-5 424.22-9.7L424.22-9.7 424.22-17.75Q424.22-22.5 426.72-25.25 429.22-28 433.37-28L433.37-28Q436.77-28 438.82-26.15 440.87-24.3 440.87-21.2L440.87-21.2 439.97-22.25 440.97-22.25 440.87-28.5 440.87-36.5 445.37-36.5 445.37 0 440.87 0 440.87-5.25 439.97-5.25 440.87-6.3Q440.87-3.15 438.82-1.33 436.77 0.5 433.37 0.5ZM434.87-3.4L434.87-3.4Q437.67-3.4 439.27-5.15 440.87-6.9 440.87-10L440.87-10 440.87-17.5Q440.87-20.6 439.27-22.35 437.67-24.1 434.87-24.1L434.87-24.1Q432.02-24.1 430.37-22.4 428.72-20.7 428.72-17.5L428.72-17.5 428.72-10Q428.72-6.8 430.37-5.1 432.02-3.4 434.87-3.4ZM507.46 0L498.71 0Q496.31 0 494.51-0.95 492.71-1.9 491.71-3.65 490.71-5.4 490.71-7.75L490.71-7.75 490.71-32.4 481.46-32.4 481.46-36.5 495.21-36.5 495.21-7.75Q495.21-6.05 496.16-5.08 497.11-4.1 498.71-4.1L498.71-4.1 507.46-4.1 507.46 0ZM524.96 0.5L524.96 0.5Q521.71 0.5 519.28-0.8 516.86-2.1 515.53-4.48 514.21-6.85 514.21-10L514.21-10 514.21-17.5Q514.21-20.7 515.53-23.05 516.86-25.4 519.28-26.7 521.71-28 524.96-28L524.96-28Q528.21-28 530.63-26.7 533.06-25.4 534.38-23.05 535.71-20.7 535.71-17.5L535.71-17.5 535.71-12.65 518.61-12.65 518.61-10Q518.61-6.75 520.26-5.03 521.91-3.3 524.96-3.3L524.96-3.3Q527.56-3.3 529.16-4.23 530.76-5.15 531.11-7L531.11-7 535.61-7Q535.16-3.55 532.23-1.53 529.31 0.5 524.96 0.5ZM531.66-16.05L531.31-15.65 531.31-17.5Q531.31-20.75 529.68-22.5 528.06-24.25 524.96-24.25L524.96-24.25Q521.91-24.25 520.26-22.5 518.61-20.75 518.61-17.5L518.61-17.5 518.61-16.05 531.66-16.05ZM552.55 0.5L552.55 0.5Q548.2 0.5 545.7-1.73 543.2-3.95 543.2-7.75L543.2-7.75Q543.2-11.6 545.7-13.8 548.2-16 552.45-16L552.45-16 560.95-16 560.95-18.75Q560.95-21.3 559.43-22.68 557.9-24.05 555.1-24.05L555.1-24.05Q552.65-24.05 551-23.03 549.35-22 549.1-20.25L549.1-20.25 544.6-20.25Q545.05-23.8 547.95-25.9 550.85-28 555.2-28L555.2-28Q559.95-28 562.7-25.55 565.45-23.1 565.45-18.9L565.45-18.9 565.45 0 561.05 0 561.05-5.25 560.3-5.25 561.05-6Q561.05-3 558.73-1.25 556.4 0.5 552.55 0.5ZM553.65-3.05L553.65-3.05Q556.85-3.05 558.9-4.65 560.95-6.25 560.95-8.75L560.95-8.75 560.95-12.65 552.55-12.65Q550.3-12.65 549-11.4 547.7-10.15 547.7-8L547.7-8Q547.7-5.7 549.28-4.38 550.85-3.05 553.65-3.05ZM583.35 0.5L583.35 0.5Q579.25 0.5 576.73-2.25 574.2-5 574.2-9.7L574.2-9.7 574.2-17.75Q574.2-22.5 576.7-25.25 579.2-28 583.35-28L583.35-28Q586.75-28 588.8-26.15 590.85-24.3 590.85-21.2L590.85-21.2 589.95-22.25 590.95-22.25 590.85-28.5 590.85-36.5 595.35-36.5 595.35 0 590.85 0 590.85-5.25 589.95-5.25 590.85-6.3Q590.85-3.15 588.8-1.33 586.75 0.5 583.35 0.5ZM584.85-3.4L584.85-3.4Q587.65-3.4 589.25-5.15 590.85-6.9 590.85-10L590.85-10 590.85-17.5Q590.85-20.6 589.25-22.35 587.65-24.1 584.85-24.1L584.85-24.1Q582-24.1 580.35-22.4 578.7-20.7 578.7-17.5L578.7-17.5 578.7-10Q578.7-6.8 580.35-5.1 582-3.4 584.85-3.4ZM614.95 0.5L614.95 0.5Q611.7 0.5 609.27-0.8 606.85-2.1 605.52-4.48 604.2-6.85 604.2-10L604.2-10 604.2-17.5Q604.2-20.7 605.52-23.05 606.85-25.4 609.27-26.7 611.7-28 614.95-28L614.95-28Q618.2-28 620.62-26.7 623.05-25.4 624.37-23.05 625.7-20.7 625.7-17.5L625.7-17.5 625.7-12.65 608.6-12.65 608.6-10Q608.6-6.75 610.25-5.03 611.9-3.3 614.95-3.3L614.95-3.3Q617.55-3.3 619.15-4.23 620.75-5.15 621.1-7L621.1-7 625.6-7Q625.15-3.55 622.22-1.53 619.3 0.5 614.95 0.5ZM621.65-16.05L621.3-15.65 621.3-17.5Q621.3-20.75 619.67-22.5 618.05-24.25 614.95-24.25L614.95-24.25Q611.9-24.25 610.25-22.5 608.6-20.75 608.6-17.5L608.6-17.5 608.6-16.05 621.65-16.05ZM640 0L635.5 0 635.5-27.5 639.9-27.5 639.9-22.25 640.95-22.25 639.5-19Q639.5-23.45 641.42-25.73 643.35-28 647.15-28L647.15-28Q651.5-28 654.07-25.28 656.65-22.55 656.65-17.9L656.65-17.9 656.65-16.25 652.15-16.25 652.15-17.5Q652.15-20.75 650.57-22.48 649-24.2 646.1-24.2L646.1-24.2Q643.25-24.2 641.62-22.45 640-20.7 640-17.5L640-17.5 640 0ZM676.19 0.4L674.09 0.4Q671.29 0.4 669.22-0.48 667.14-1.35 665.92-2.95 664.69-4.55 664.44-6.75L664.44-6.75 668.94-6.75Q669.24-5.3 670.57-4.45 671.89-3.6 674.09-3.6L674.09-3.6 676.19-3.6Q678.84-3.6 680.14-4.67 681.44-5.75 681.44-7.55L681.44-7.55Q681.44-9.3 680.27-10.33 679.09-11.35 676.79-11.7L676.79-11.7 673.09-12.3Q669.04-13 667.07-14.83 665.09-16.65 665.09-20.15L665.09-20.15Q665.09-23.85 667.44-25.88 669.79-27.9 674.49-27.9L674.49-27.9 676.39-27.9Q680.34-27.9 682.74-26.05 685.14-24.2 685.64-21.05L685.64-21.05 681.14-21.05Q680.84-22.35 679.64-23.13 678.44-23.9 676.39-23.9L676.39-23.9 674.49-23.9Q671.94-23.9 670.77-22.95 669.59-22 669.59-20.1L669.59-20.1Q669.59-18.4 670.59-17.6 671.59-16.8 673.74-16.45L673.74-16.45 677.44-15.85Q681.89-15.15 683.92-13.25 685.94-11.35 685.94-7.75L685.94-7.75Q685.94-3.95 683.52-1.78 681.09 0.4 676.19 0.4L676.19 0.4ZM699.04 0L694.54 0 694.54-36.5 699.04-36.5 699.04-27.5 699.04-22.25 699.99-22.25 699.04-21.2Q699.04-24.45 700.99-26.23 702.94-28 706.39-28L706.39-28Q710.54-28 712.99-25.45 715.44-22.9 715.44-18.5L715.44-18.5 715.44 0 710.94 0 710.94-18Q710.94-20.95 709.37-22.58 707.79-24.2 705.09-24.2L705.09-24.2Q702.29-24.2 700.67-22.45 699.04-20.7 699.04-17.5L699.04-17.5 699.04 0ZM747.69 0L724.19 0 724.19-4.1 733.94-4.1 733.94-23.4 725.44-23.4 725.44-27.5 738.44-27.5 738.44-4.1 747.69-4.1 747.69 0ZM735.69-32.45L735.69-32.45Q734.04-32.45 733.09-33.3 732.14-34.15 732.14-35.6L732.14-35.6Q732.14-37.1 733.09-37.98 734.04-38.85 735.69-38.85L735.69-38.85Q737.34-38.85 738.29-37.98 739.24-37.1 739.24-35.6L739.24-35.6Q739.24-34.15 738.29-33.3 737.34-32.45 735.69-32.45ZM759.04 9L754.54 9 754.54-27.5 759.04-27.5 759.04-22.25 759.94-22.25 759.04-21.2Q759.04-24.35 761.11-26.18 763.19-28 766.59-28L766.59-28Q770.74-28 773.21-25.28 775.69-22.55 775.69-17.8L775.69-17.8 775.69-9.75Q775.69-6.6 774.56-4.3 773.44-2 771.41-0.75 769.39 0.5 766.59 0.5L766.59 0.5Q763.24 0.5 761.14-1.35 759.04-3.2 759.04-6.3L759.04-6.3 759.94-5.25 758.94-5.25 759.04 1 759.04 9ZM765.09-3.4L765.09-3.4Q767.94-3.4 769.56-5.1 771.19-6.8 771.19-10L771.19-10 771.19-17.5Q771.19-20.7 769.56-22.4 767.94-24.1 765.09-24.1L765.09-24.1Q762.34-24.1 760.69-22.35 759.04-20.6 759.04-17.5L759.04-17.5 759.04-10Q759.04-6.9 760.69-5.15 762.34-3.4 765.09-3.4ZM825.13 0.5L825.13 0.5Q821.83 0.5 819.36-0.75 816.88-2 815.53-4.38 814.18-6.75 814.18-10L814.18-10 814.18-17.5Q814.18-20.8 815.53-23.15 816.88-25.5 819.36-26.75 821.83-28 825.13-28L825.13-28Q829.88-28 832.78-25.45 835.68-22.9 835.83-18.5L835.83-18.5 831.33-18.5Q831.18-21.15 829.56-22.58 827.93-24 825.13-24L825.13-24Q822.18-24 820.43-22.33 818.68-20.65 818.68-17.55L818.68-17.55 818.68-10Q818.68-6.9 820.43-5.2 822.18-3.5 825.13-3.5L825.13-3.5Q827.93-3.5 829.56-4.95 831.18-6.4 831.33-9L831.33-9 835.83-9Q835.68-4.6 832.78-2.05 829.88 0.5 825.13 0.5ZM854.93 0.4L854.93 0.4Q851.63 0.4 849.23-0.85 846.83-2.1 845.5-4.48 844.18-6.85 844.18-10.1L844.18-10.1 844.18-17.4Q844.18-20.7 845.5-23.05 846.83-25.4 849.23-26.65 851.63-27.9 854.93-27.9L854.93-27.9Q858.23-27.9 860.63-26.65 863.03-25.4 864.35-23.05 865.68-20.7 865.68-17.45L865.68-17.45 865.68-10.1Q865.68-6.85 864.35-4.48 863.03-2.1 860.63-0.85 858.23 0.4 854.93 0.4ZM854.93-3.6L854.93-3.6Q857.88-3.6 859.53-5.25 861.18-6.9 861.18-10.1L861.18-10.1 861.18-17.4Q861.18-20.6 859.53-22.25 857.88-23.9 854.93-23.9L854.93-23.9Q852.03-23.9 850.35-22.25 848.68-20.6 848.68-17.4L848.68-17.4 848.68-10.1Q848.68-6.9 850.35-5.25 852.03-3.6 854.93-3.6ZM877.38 0L873.23 0 873.23-27.5 877.18-27.5 877.18-24.2 878.08-24.2 877.38-23Q877.38-25.3 878.6-26.65 879.83-28 881.93-28L881.93-28Q884.23-28 885.48-26.3 886.73-24.6 886.73-21.5L886.73-21.5 885.38-24.2 887.48-24.2 886.53-23Q886.53-25.3 887.8-26.65 889.08-28 891.18-28L891.18-28Q893.78-28 895.2-26.05 896.63-24.1 896.63-20.9L896.63-20.9 896.63 0 892.48 0 892.48-20.95Q892.48-22.65 891.75-23.6 891.03-24.55 889.63-24.55L889.63-24.55Q888.28-24.55 887.5-23.63 886.73-22.7 886.73-21L886.73-21 886.73 0 883.13 0 883.13-20.95Q883.13-22.7 882.35-23.63 881.58-24.55 880.18-24.55L880.18-24.55Q878.78-24.55 878.08-23.63 877.38-22.7 877.38-21L877.38-21 877.38 0ZM916.52 0.5L916.52 0.5Q913.12 0.5 911.07-1.33 909.02-3.15 909.02-6.3L909.02-6.3 909.92-5.25 909.02-5.25 909.02 0 904.52 0 904.52-36.5 909.02-36.5 909.02-28.5 908.92-22.25 909.92-22.25 909.02-21.2Q909.02-24.3 911.1-26.15 913.17-28 916.52-28L916.52-28Q920.67-28 923.17-25.25 925.67-22.5 925.67-17.75L925.67-17.75 925.67-9.7Q925.67-5 923.17-2.25 920.67 0.5 916.52 0.5ZM915.02-3.4L915.02-3.4Q917.87-3.4 919.52-5.1 921.17-6.8 921.17-10L921.17-10 921.17-17.5Q921.17-20.7 919.52-22.4 917.87-24.1 915.02-24.1L915.02-24.1Q912.27-24.1 910.65-22.35 909.02-20.6 909.02-17.5L909.02-17.5 909.02-10Q909.02-6.9 910.65-5.15 912.27-3.4 915.02-3.4ZM957.67 0L934.17 0 934.17-4.1 943.92-4.1 943.92-23.4 935.42-23.4 935.42-27.5 948.42-27.5 948.42-4.1 957.67-4.1 957.67 0ZM945.67-32.45L945.67-32.45Q944.02-32.45 943.07-33.3 942.12-34.15 942.12-35.6L942.12-35.6Q942.12-37.1 943.07-37.98 944.02-38.85 945.67-38.85L945.67-38.85Q947.32-38.85 948.27-37.98 949.22-37.1 949.22-35.6L949.22-35.6Q949.22-34.15 948.27-33.3 947.32-32.45 945.67-32.45ZM969.02 0L964.52 0 964.52-27.5 969.02-27.5 969.02-22.25 969.97-22.25 969.02-21.2Q969.02-24.45 970.97-26.23 972.92-28 976.37-28L976.37-28Q980.52-28 982.97-25.45 985.42-22.9 985.42-18.5L985.42-18.5 985.42 0 980.92 0 980.92-18Q980.92-20.95 979.34-22.53 977.77-24.1 975.07-24.1L975.07-24.1Q972.27-24.1 970.64-22.4 969.02-20.7 969.02-17.5L969.02-17.5 969.02 0ZM1004.92 0.5L1004.92 0.5Q1001.67 0.5 999.24-0.8 996.82-2.1 995.49-4.48 994.17-6.85 994.17-10L994.17-10 994.17-17.5Q994.17-20.7 995.49-23.05 996.82-25.4 999.24-26.7 1001.67-28 1004.92-28L1004.92-28Q1008.17-28 1010.59-26.7 1013.02-25.4 1014.34-23.05 1015.67-20.7 1015.67-17.5L1015.67-17.5 1015.67-12.65 998.57-12.65 998.57-10Q998.57-6.75 1000.22-5.03 1001.87-3.3 1004.92-3.3L1004.92-3.3Q1007.52-3.3 1009.12-4.23 1010.72-5.15 1011.07-7L1011.07-7 1015.57-7Q1015.12-3.55 1012.19-1.53 1009.27 0.5 1004.92 0.5ZM1011.62-16.05L1011.27-15.65 1011.27-17.5Q1011.27-20.75 1009.64-22.5 1008.02-24.25 1004.92-24.25L1004.92-24.25Q1001.87-24.25 1000.22-22.5 998.57-20.75 998.57-17.5L998.57-17.5 998.57-16.05 1011.62-16.05ZM1033.31 0.5L1033.31 0.5Q1029.21 0.5 1026.69-2.25 1024.16-5 1024.16-9.7L1024.16-9.7 1024.16-17.75Q1024.16-22.5 1026.66-25.25 1029.16-28 1033.31-28L1033.31-28Q1036.71-28 1038.76-26.15 1040.81-24.3 1040.81-21.2L1040.81-21.2 1039.91-22.25 1040.91-22.25 1040.81-28.5 1040.81-36.5 1045.31-36.5 1045.31 0 1040.81 0 1040.81-5.25 1039.91-5.25 1040.81-6.3Q1040.81-3.15 1038.76-1.33 1036.71 0.5 1033.31 0.5ZM1034.81-3.4L1034.81-3.4Q1037.61-3.4 1039.21-5.15 1040.81-6.9 1040.81-10L1040.81-10 1040.81-17.5Q1040.81-20.6 1039.21-22.35 1037.61-24.1 1034.81-24.1L1034.81-24.1Q1031.96-24.1 1030.31-22.4 1028.66-20.7 1028.66-17.5L1028.66-17.5 1028.66-10Q1028.66-6.8 1030.31-5.1 1031.96-3.4 1034.81-3.4Z" opacity="1" transform="matrix(1,0,0,1,0,0)" fill="#030303" class="slogan-text-1" data-fill-palette-color="secondary" id="text-1"></path></svg></g></svg></g></svg></g></svg></g><g transform="matrix(1,0,0,1,123.79176320221958,0)"><svg viewBox="0 0 147.9364735955608 147.9364735955608" height="147.9364735955608" width="147.9364735955608"><g><svg></svg></g><g id="icon-0"><svg viewBox="0 0 147.9364735955608 147.9364735955608" height="147.9364735955608" width="147.9364735955608"><g><path transform="scale(1.47936,1.47936)" d="M30 100c-16.569 0-30-13.431-30-30v-40c0-16.569 13.431-30 30-30h40c16.569 0 30 13.431 30 30v40c0 16.569-13.431 30-30 30z" fill="#9c0ab3" fill-rule="nonzero" stroke="none" stroke-width="1" stroke-linecap="butt" stroke-linejoin="miter" stroke-miterlimit="10" stroke-dasharray="" stroke-dashoffset="0" font-family="none" font-weight="none" font-size="none" text-anchor="none" style="mix-blend-mode: normal" data-fill-palette-color="accent"></path></g><g transform="matrix(1,0,0,1,29.587294719112165,45.594155728637006)"><svg viewBox="0 0 88.76188415733648 56.7481621382868" height="56.7481621382868" width="88.76188415733648"><g><svg xmlns="http://www.w3.org/2000/svg" xmlns:xlink="http://www.w3.org/1999/xlink" version="1.1" x="0" y="0" viewBox="16.1289986978895 31.500108107694967 74.28794130211053 47.49453189230502" enable-background="new 0 0 100 100" xml:space="preserve" height="56.7481621382868" width="88.76188415733648" class="icon-cg-0" data-fill-palette-color="quaternary" id="cg-0"><g fill="#f9f9f9" data-fill-palette-color="quaternary"><path fill="#f9f9f9" d="M22.921 70.313c-0.984-1.241-1.885-2.377-2.334-2.922-0.514-0.625-0.833-1.422 0.307-3.017 1.042-1.458 0.531-5.19 0.349-6.3-0.02-0.12-0.061-0.235-0.121-0.34-0.037-0.064-3.682-6.433-2.884-10.418 0.762-3.808 5.895-10.103 13.553-12.017 6.912-1.73 15.118 0.229 17.49 0.876 0.124 0.034 0.353 0.105 0.664 0.203 2.211 0.689 8.083 2.521 11.223 2.026 2.188-0.346 5.263-1.461 7.506-2.276 0.52-0.189 1.081-0.392 1.5-0.535 0.008 0.272 0.035 0.544 0.096 0.81 0.105 0.464 0.518 0.778 0.973 0.778 0.073 0 0.148-0.008 0.224-0.025 0.538-0.123 0.875-0.659 0.752-1.197-0.233-1.026 0.36-2.516 0.608-3.003 0.252-0.491 0.059-1.092-0.431-1.345-0.491-0.252-1.095-0.06-1.347 0.431-0.058 0.113-0.323 0.656-0.548 1.386-0.371 0.051-0.978 0.264-2.509 0.82-2.046 0.743-5.137 1.864-7.137 2.18-2.67 0.423-8.425-1.371-10.315-1.96-0.344-0.107-0.597-0.186-0.756-0.229-2.468-0.674-11.095-2.728-18.479-0.881-8.008 2.002-14.036 8.6-15.028 13.565-0.876 4.378 2.4 10.535 3.02 11.647 0.279 1.827 0.336 4.127-0.031 4.641-1.452 2.033-1.527 3.867-0.223 5.451 0.444 0.54 1.336 1.665 2.311 2.894 3.324 4.191 3.866 4.84 4.125 5.034 0.187 0.14 0.412 0.209 0.635 0.209 0.304 0 0.604-0.129 0.795-0.384 0.331-0.442 0.272-1.043-0.17-1.375C26.425 74.732 24.316 72.073 22.921 70.313z" data-fill-palette-color="quaternary"></path><path fill="#f9f9f9" d="M56.388 60.004c0.294-0.467 0.155-1.084-0.312-1.379-0.467-0.295-1.083-0.156-1.379 0.31-0.154 0.243-1.27 2.07-1.626 3.879-0.088-0.008-0.175-0.022-0.265-0.006-6.859 1.249-14.101-0.218-16.567-0.809 1.304-2.66 1.252-5.172 1.248-5.293-0.016-0.552-0.481-0.989-1.028-0.971-0.552 0.016-0.987 0.476-0.971 1.029 0 0.027 0.06 2.803-1.6 5.333-0.788 1.2-2.318 1.684-3.8 2.153-1.524 0.482-3.099 0.981-3.83 2.33-1.366 2.522 2.613 7.54 3.866 9.018 0.25 0.296 0.651 0.419 1.025 0.318 0.896-0.246 1.653-0.194 2.248 0.15 0.275 0.159 0.5 0.369 0.68 0.59-2.224 0.081-5.51 0.328-5.692 0.342-0.551 0.042-0.963 0.522-0.922 1.072 0.04 0.525 0.478 0.924 0.996 0.925 0.025 0 0.051-0.001 0.077-0.003 1.6-0.122 5.994-0.42 7.096-0.352 0.319 0.024 0.626-0.113 0.829-0.358 0.204-0.245 0.28-0.571 0.204-0.88-0.021-0.083-0.521-2.042-2.243-3.053-0.915-0.537-1.973-0.707-3.154-0.506-1.955-2.426-3.692-5.496-3.251-6.31 0.346-0.64 1.478-0.998 2.675-1.377 1.525-0.483 3.229-1.025 4.418-2.376 1.26 0.336 6.121 1.524 11.839 1.524 1.964 0 4.028-0.144 6.081-0.507C53.395 67.834 54.928 76.278 55 76.674c0.087 0.483 0.508 0.821 0.982 0.821 0.06 0 0.119-0.005 0.18-0.016 0.544-0.099 0.904-0.619 0.805-1.163-0.536-2.951-1.943-10.93-2.014-12.395C54.894 62.667 55.968 60.668 56.388 60.004z" data-fill-palette-color="quaternary"></path><path fill="#f9f9f9" d="M88.053 38.502l-0.301-0.263c-1.405-1.265-3.071-2.215-4.683-3.134-0.468-0.267-0.933-0.532-1.386-0.802-2.144-1.277-4.165-2.487-7.152-1.739-0.536 0.134-0.862 0.677-0.727 1.213 0.134 0.535 0.678 0.864 1.212 0.728 2.085-0.521 3.435 0.2 5.643 1.516 0.464 0.277 0.94 0.549 1.42 0.822 1.519 0.867 3.09 1.762 4.336 2.883l0.331 0.29c1.108 0.957 1.671 1.596 1.671 1.899 0 0.154-0.034 0.379-0.091 0.641l-0.586-0.27c-0.502-0.232-1.096-0.011-1.327 0.489-0.231 0.501-0.013 1.096 0.489 1.327l0.815 0.376c-0.487 1.226-1.153 2.441-1.759 2.684-1.185 0.474-2.596 0.564-3.819 0.59-0.401 0.009-0.82-0.031-1.273-0.072-0.886-0.081-1.801-0.165-2.72 0.068-2.162 0.545-3.596 2.332-4.861 3.908-0.3 0.374-0.592 0.738-0.883 1.07-0.659 0.75-1.306 1.511-1.951 2.273-1.38 1.624-2.806 3.304-4.324 4.822-0.837 0.837-3.745 3.886-5.992 7.99-2.252 4.112-0.706 7.377-0.639 7.513 0.188 0.384 0.593 0.607 1.024 0.553 1.635-0.207 2.629 0.351 3.209 0.953-1.257 0.053-3.087 0.115-4.776 0.165-0.552 0.016-0.986 0.477-0.971 1.029 0.017 0.542 0.461 0.971 0.999 0.971 0.011 0 0.021 0 0.031-0.001 2.272-0.067 6.151-0.192 6.606-0.284 0.276-0.055 0.516-0.225 0.661-0.465 0.145-0.241 0.182-0.532 0.101-0.802-0.399-1.334-2.046-3.649-5.291-3.609-0.235-0.926-0.438-2.803 0.8-5.063 2.12-3.87 4.862-6.747 5.652-7.536 1.576-1.577 3.029-3.288 4.435-4.942 0.639-0.753 1.278-1.505 1.928-2.247 0.311-0.354 0.622-0.741 0.942-1.138 1.12-1.396 2.278-2.84 3.789-3.221 0.589-0.15 1.298-0.084 2.049-0.015 0.487 0.044 0.996 0.093 1.498 0.08 1.403-0.03 3.038-0.141 4.518-0.733 2.363-0.945 3.717-5.901 3.717-7.105C90.416 40.541 88.994 39.314 88.053 38.502z" data-fill-palette-color="quaternary"></path><path fill="#f9f9f9" d="M80.167 40.006c0.132 0.059 0.271 0.086 0.405 0.087 0.384 0 0.749-0.222 0.915-0.595 0.224-0.504-0.003-1.095-0.508-1.32l-1.191-0.529c-0.507-0.225-1.096 0.005-1.32 0.508-0.224 0.504 0.003 1.095 0.508 1.32L80.167 40.006z" data-fill-palette-color="quaternary"></path></g></svg></g></svg></g></svg></g></svg></g><g></g></svg></g></svg></g><defs></defs></svg><rect width="357.77447965211275" height="247.2" fill="none" stroke="none" visibility="hidden"></rect></g></svg></g></svg>